<?xml version="1.0" encoding="UTF-8"?>
<svg width="172px" height="61px" viewBox="0 0 172 61" version="1.1" xmlns="http://www.w3.org/2000/svg" xmlns:xlink="http://www.w3.org/1999/xlink">
    <!-- Generator: Sketch 47.1 (45422) - http://www.bohemiancoding.com/sketch -->
    <title>appstore-button</title>
    <desc>Created with Sketch.</desc>
    <defs></defs>
    <g id="Welcome" stroke="none" stroke-width="1" fill="none" fill-rule="evenodd">
        <g id="Desktop-HD" transform="translate(-642.000000, -2445.000000)">
            <g id="app" transform="translate(0.000000, 2132.000000)">
                <g id="appstore-button" transform="translate(642.000000, 313.500000)">
                    <g id="Rectangle-1-+-Google-Play-Icon-+-Imported-Layers" fill="#000000">
                        <rect id="Rectangle-1" x="0" y="0" width="172" height="60" rx="10"></rect>
                    </g>
                    <text id="Dísponível-na" font-family="MyriadPro-Regular, Myriad Pro" font-size="14" font-weight="normal" fill="#FFFFFF">
                        <tspan x="43" y="19">Dísponível na</tspan>
                        <tspan x="122.24" y="19" font-size="18"></tspan>
                        <tspan x="43" y="36.8000057" font-size="28">App Store</tspan>
                    </text>
                    <path d="M26.6886857,29.2488095 C29.9314286,29.2488095 32.0050286,32.3863333 32.0050286,32.3863333 C32.0050286,32.3863333 28.8418286,34.1028571 28.8418286,37.8307381 C28.8418286,42.2553095 32.8155429,43.5423571 32.8155429,43.5423571 C32.8155429,43.5423571 29.6790857,50.9843095 26.1572571,50.9843095 C24.1769143,50.9843095 24.0445714,49.8450238 21.4128,49.8450238 C19.1273143,49.8450238 18.3565714,50.9843095 16.6155429,50.9843095 C13.2925714,50.9843095 9,43.7301667 9,37.8307381 C9,31.7027619 13.3460571,29.2488095 16.0704,29.2488095 C18.4628571,29.2488095 19.4592,30.6566905 21.3860571,30.6566905 C23.0077714,30.6566905 24.2838857,29.2488095 26.6886857,29.2488095 L26.6886857,29.2488095 Z M26.1312,23 C26.6091429,26.0035714 23.8848,29.7183333 20.6290286,29.5975 C20.1504,25.7757143 23.6592,23.201619 26.1312,23 L26.1312,23 Z" id="Imported-Layers" fill="#FFFFFF"></path>
                </g>
            </g>
        </g>
    </g>
</svg>