<?xml version="1.0" encoding="UTF-8"?>
<svg width="435px" height="330px" viewBox="0 0 435 330" version="1.1" xmlns="http://www.w3.org/2000/svg" xmlns:xlink="http://www.w3.org/1999/xlink">
    <!-- Generator: Sketch 47.1 (45422) - http://www.bohemiancoding.com/sketch -->
    <title>car1</title>
    <desc>Created with Sketch.</desc>
    <defs></defs>
    <g id="Welcome" stroke="none" stroke-width="1" fill="none" fill-rule="evenodd">
        <g id="Desktop-HD" transform="translate(-153.000000, -1123.000000)">
            <g id="car-section" transform="translate(1.000000, 1039.000000)">
                <g id="car1" transform="translate(152.000000, 84.000000)">
                    <g id="Group">
                        <path d="M369.637306,97.8258503 L350.253886,31.877551 C343.266839,7.93741497 327.940415,0.0326530612 301.34456,0.0326530612 L133.204663,0.0326530612 C106.608808,0.0326530612 83.8445596,7.48571429 78.6606218,31.877551 L64.9119171,97.8258503 L76.1813472,97.6 L88.5777202,37.9755102 C93.0854922,15.8421769 113.821244,9.29251701 137.937824,9.29251701 L296.38601,9.29251701 C320.502591,9.29251701 334.251295,16.2938776 340.562176,37.9755102 L358.142487,97.6 L369.637306,97.8258503 L369.637306,97.8258503 Z" id="Shape" fill="#2879AF"></path>
                        <path d="M30.8782383,216.84898 L77.984456,216.84898 C83.619171,216.84898 88.126943,222.043537 88.126943,228.367347 L88.126943,318.255782 C88.126943,324.579592 83.619171,329.77415 77.984456,329.77415 L30.8782383,329.77415 C25.2435233,329.77415 20.7357513,324.579592 20.7357513,318.255782 L20.7357513,228.367347 C20.7357513,222.043537 25.2435233,216.84898 30.8782383,216.84898 L30.8782383,216.84898 Z" id="Shape" fill="#4E4E4E"></path>
                        <path d="M357.015544,216.84898 L404.121762,216.84898 C409.756477,216.84898 414.264249,222.043537 414.264249,228.367347 L414.264249,318.255782 C414.264249,324.579592 409.756477,329.77415 404.121762,329.77415 L357.015544,329.77415 C351.380829,329.77415 346.873057,324.579592 346.873057,318.255782 L346.873057,228.367347 C346.647668,222.043537 351.380829,216.84898 357.015544,216.84898 L357.015544,216.84898 Z" id="Shape" fill="#4E4E4E"></path>
                        <path d="M30.8782383,216.84898 L77.984456,216.84898 C83.619171,216.84898 88.126943,221.365986 88.126943,226.560544 L88.126943,311.028571 C88.126943,316.44898 83.619171,320.740136 77.984456,320.740136 L30.8782383,320.740136 C25.2435233,320.740136 20.7357513,316.223129 20.7357513,311.028571 L20.7357513,226.560544 C20.7357513,221.140136 25.2435233,216.84898 30.8782383,216.84898 L30.8782383,216.84898 Z" id="Shape" fill="#7F7F7F"></path>
                        <path d="M357.015544,216.84898 L404.121762,216.84898 C409.756477,216.84898 414.264249,221.365986 414.264249,226.560544 L414.264249,311.028571 C414.264249,316.44898 409.756477,320.740136 404.121762,320.740136 L357.015544,320.740136 C351.380829,320.740136 346.873057,316.223129 346.873057,311.028571 L346.873057,226.560544 C346.647668,221.140136 351.380829,216.84898 357.015544,216.84898 L357.015544,216.84898 Z" id="Shape" fill="#7F7F7F"></path>
                        <path d="M382.259067,62.3673469 L405.474093,62.3673469 C411.334197,62.3673469 416.067358,67.3360544 416.067358,73.6598639 L416.067358,82.0163265 C416.067358,88.1142857 411.334197,93.3088435 405.474093,93.3088435 L390.147668,93.3088435 L361.297927,107.537415 L358.593264,101.213605 L382.484456,89.4693878 L382.484456,62.3673469 L382.259067,62.3673469 L382.259067,62.3673469 Z M52.515544,62.3673469 L29.3005181,62.3673469 C23.4404145,62.3673469 18.7072539,67.3360544 18.7072539,73.6598639 L18.7072539,82.0163265 C18.7072539,88.1142857 23.4404145,93.3088435 29.3005181,93.3088435 L44.626943,93.3088435 L73.4766839,107.537415 L76.1813472,101.213605 L52.2901554,89.4693878 L52.2901554,62.3673469 L52.515544,62.3673469 Z" id="Shape" fill="#2879AF"></path>
                        <path d="M370.53886,97.6 C402.093264,97.6 425.30829,119.959184 428.012953,147.287075 L433.873057,208.492517 C436.803109,238.982313 421.927461,258.179592 375.272021,258.179592 L59.2772021,258.179592 C12.6217617,258.179592 -2.25388601,238.982313 0.676165803,208.492517 L6.53626943,147.287075 C9.24093264,119.959184 32.4559585,97.6 64.0103627,97.6 L370.53886,97.6 L370.53886,97.6 Z" id="Shape" fill="#4E4E4E"></path>
                        <path d="M340.787565,37.9755102 L358.367876,97.6 L76.6321244,97.6 L89.0284974,37.9755102 C93.5362694,15.8421769 114.272021,9.29251701 138.388601,9.29251701 L296.836788,9.29251701 C320.727979,9.29251701 334.476684,16.2938776 340.787565,37.9755102 L340.787565,37.9755102 Z" id="Shape" fill="#CCEFFD"></path>
                        <path d="M370.53886,97.6 C402.093264,97.6 425.30829,119.959184 428.012953,147.287075 L432.746114,195.393197 C431.393782,218.881633 414.940415,233.110204 374.370466,233.110204 L317.797927,233.110204 L310.360104,212.783673 C304.5,196.97415 306.07772,194.263946 284.665803,194.263946 L150.334197,194.263946 C129.147668,194.263946 130.5,197.2 124.639896,212.783673 L117.202073,233.110204 L60.4041451,233.110204 C19.8341969,233.110204 3.38082902,218.881633 2.02849741,195.393197 L6.76165803,147.287075 C9.46632124,119.959184 32.6813472,97.6 64.2357513,97.6 L370.53886,97.6 L370.53886,97.6 Z" id="Shape" fill="#2879AF"></path>
                        <path d="M364.453368,97.6 C394.65544,97.6 416.968912,117.926531 419.448187,142.770068 L423.955959,186.585034 C422.603627,208.040816 406.826425,220.914286 368.059585,220.914286 L313.740933,220.914286 L306.528497,202.394558 C300.893782,188.165986 302.246114,185.455782 281.96114,185.455782 L153.03886,185.455782 C132.528497,185.455782 133.880829,188.165986 128.471503,202.394558 L121.259067,220.914286 L66.7150259,220.914286 C27.7227979,220.914286 12.1709845,207.814966 10.8186528,186.585034 L15.3264249,142.770068 C17.8056995,117.926531 40.119171,97.6 70.3212435,97.6 L364.453368,97.6 L364.453368,97.6 Z" id="Shape" fill="#3498DB"></path>
                        <path d="M294.582902,152.481633 L294.80829,153.385034 C299.992228,169.872109 298.189119,178.680272 283.088083,178.680272 L151.686528,178.680272 C136.585492,178.680272 135.007772,169.872109 139.966321,153.385034 L140.19171,152.481633 L35.8367876,152.481633 C28.6243523,152.481633 20.5103627,146.157823 22.7642487,139.608163 L26.8212435,127.863946 C32.2305699,112.054422 44.8523316,114.990476 55.6709845,114.990476 L58.8264249,114.990476 C59.9533679,114.538776 61.9818653,114.990476 66.4896373,114.990476 L164.533679,114.990476 L270.466321,114.990476 L368.059585,114.990476 C372.567358,114.990476 374.595855,114.538776 375.722798,114.990476 L378.878238,114.990476 C389.696891,114.990476 402.318653,112.054422 407.727979,127.863946 L411.784974,139.608163 C414.03886,146.157823 405.92487,152.481633 398.712435,152.481633 L294.582902,152.481633 L294.582902,152.481633 Z" id="Shape" fill="#B0B0B0"></path>
                        <path d="M294.582902,152.481633 L294.80829,153.385034 C295.935233,156.998639 296.611399,160.160544 297.062176,163.096599 C295.935233,167.839456 291.65285,170.32381 283.088083,170.32381 L151.686528,170.32381 C143.121762,170.32381 138.839378,167.839456 137.712435,163.096599 C138.163212,160.160544 138.839378,156.998639 139.966321,153.385034 L140.19171,152.481633 L138.61399,152.481633 C139.064767,151.126531 139.515544,149.771429 139.966321,148.416327 L140.19171,147.738776 L35.8367876,147.738776 C30.2020725,147.738776 24.1165803,144.35102 22.7642487,140.285714 C22.7642487,140.059864 22.7642487,140.059864 22.9896373,139.834014 L27.0466321,128.089796 C30.8782383,117.023129 38.3160622,115.216327 45.9792746,114.990476 L45.9792746,114.990476 L46.4300518,114.990476 L46.880829,114.990476 L47.3316062,114.990476 C50.0362694,114.990476 52.9663212,115.216327 55.6709845,115.216327 L58.8264249,115.216327 C59.2772021,114.990476 59.5025907,114.990476 60.1787565,114.990476 L60.1787565,114.990476 C61.5310881,114.990476 63.3341969,115.216327 66.0388601,115.216327 L164.533679,115.216327 L270.466321,115.216327 L368.059585,115.216327 C370.764249,115.216327 372.567358,114.990476 373.919689,114.990476 L373.919689,114.990476 C374.370466,114.990476 374.821244,114.990476 375.272021,115.216327 L378.427461,115.216327 C381.132124,115.216327 384.062176,114.990476 386.766839,114.990476 L386.766839,114.990476 L387.217617,114.990476 L387.668394,114.990476 L388.119171,114.990476 C396.007772,114.990476 403.220207,116.797279 407.051813,128.089796 L411.108808,139.834014 C411.108808,140.059864 411.108808,140.059864 411.334197,140.285714 C409.981865,144.576871 403.896373,147.738776 398.261658,147.738776 L293.906736,147.738776 L294.132124,148.416327 C294.582902,149.771429 295.033679,151.126531 295.484456,152.481633 L294.582902,152.481633 L294.582902,152.481633 Z" id="Shape" fill="#CACACA"></path>
                        <path d="M55.4455959,250.726531 L72.3497409,250.726531 C74.8290155,250.726531 76.6321244,249.145578 76.857513,247.338776 L77.0829016,243.72517 C77.3082902,241.692517 76.1813472,240.337415 72.5751295,240.337415 L55.2202073,240.337415 C51.388601,240.337415 50.4870466,241.692517 50.7124352,243.72517 L50.9378238,247.338776 C51.1632124,249.371429 52.9663212,250.726531 55.4455959,250.726531 L55.4455959,250.726531 Z" id="Shape" fill="#7F7F7F"></path>
                        <path d="M364.678756,248.919728 L383.160622,248.919728 C385.865285,248.919728 387.893782,247.112925 387.893782,245.080272 L388.119171,241.240816 C388.34456,238.982313 387.217617,237.401361 383.160622,237.401361 L364.227979,237.401361 C360.170984,237.401361 359.044041,238.756463 359.26943,241.240816 L359.720207,245.080272 C360.170984,247.112925 361.974093,248.919728 364.678756,248.919728 L364.678756,248.919728 Z" id="Shape" fill="#7F7F7F"></path>
                        <path d="M163.181347,208.944218 L271.593264,208.944218 C275.42487,208.944218 278.580311,212.106122 278.580311,215.945578 L278.580311,236.72381 C278.580311,240.563265 275.42487,243.72517 271.593264,243.72517 L163.181347,243.72517 C159.349741,243.72517 156.194301,240.563265 156.194301,236.72381 L156.194301,215.945578 C156.194301,212.106122 159.349741,208.944218 163.181347,208.944218 L163.181347,208.944218 Z" id="Shape" fill="#FFFFFF"></path>
                        <path d="M266.634715,120.636735 C277.227979,120.636735 276.551813,122.443537 279.481865,131.477551 L284.665803,148.190476 C288.497409,160.160544 287.145078,166.484354 276.101036,166.484354 L158.898964,166.484354 C147.629534,166.484354 146.502591,160.160544 150.334197,148.190476 L155.518135,131.477551 C158.448187,122.217687 157.772021,120.636735 168.365285,120.636735 L266.634715,120.636735 L266.634715,120.636735 Z" id="Shape" fill="#4E4E4E"></path>
                        <g transform="translate(31.554404, 119.959184)" id="Shape">
                            <path d="M357.917098,0 L361.523316,0 C366.256477,0 370.53886,4.06530612 372.11658,9.25986395 L375.046632,18.9714286 C376.624352,24.6176871 375.497409,28.2312925 368.510363,28.2312925 L364.453368,28.2312925 L357.917098,0 L357.917098,0 Z" fill="#CA5D38"></path>
                            <path d="M329.292746,0 L350.253886,0 L356.790155,28.0054422 L335.603627,28.0054422 C328.391192,28.0054422 325.911917,24.3918367 324.784974,18.7455782 L323.207254,9.03401361 C322.080311,4.06530612 324.559585,0 329.292746,0 L329.292746,0 Z" fill="#D7D7D7"></path>
                            <path d="M17.8056995,0 L14.1994819,0 C9.46632124,0 5.18393782,4.06530612 3.60621762,9.25986395 L0.676165803,18.9714286 C-0.901554404,24.6176871 0.225388601,28.2312925 7.21243523,28.2312925 L11.2694301,28.2312925 L17.8056995,0 L17.8056995,0 Z" fill="#CA5D38"></path>
                            <path d="M46.4300518,0 L25.4689119,0 L18.9326425,28.0054422 L40.119171,28.0054422 C47.3316062,28.0054422 49.8108808,24.3918367 50.9378238,18.7455782 L52.515544,9.03401361 C53.642487,4.06530612 51.1632124,0 46.4300518,0 L46.4300518,0 Z" fill="#D7D7D7"></path>
                        </g>
                        <g transform="translate(99.170984, 38.653061)" id="Shape" fill="#B8DFF0">
                            <path d="M89.0284974,2.03265306 C93.3108808,2.03265306 94.888601,5.87210884 94.6632124,7.9047619 C92.4093264,22.8108844 90.8316062,40.2013605 89.9300518,58.9469388 L1.57772021,58.9469388 C3.38082902,38.8462585 9.69170984,20.552381 18.9326425,5.87210884 C20.2849741,3.61360544 22.9896373,2.03265306 26.1450777,2.03265306 L89.0284974,2.03265306 L89.0284974,2.03265306 Z"></path>
                            <path d="M147.404145,2.03265306 C143.121762,2.03265306 141.544041,5.87210884 141.76943,7.9047619 C144.023316,22.8108844 145.601036,40.2013605 146.502591,58.9469388 L234.854922,58.9469388 C233.051813,38.8462585 226.740933,20.552381 217.5,5.87210884 C216.147668,3.61360544 213.443005,2.03265306 210.287565,2.03265306 L147.404145,2.03265306 L147.404145,2.03265306 Z"></path>
                        </g>
                        <path d="M201.948187,22.8435374 L232.826425,22.8435374 C235.531088,22.8435374 237.559585,25.1020408 237.559585,28.0380952 L238.010363,33.4585034 C238.235751,36.6204082 237.108808,38.6530612 233.051813,38.6530612 L201.722798,38.6530612 C197.665803,38.6530612 196.53886,36.6204082 196.764249,33.4585034 L196.989637,28.0380952 C197.215026,25.3278912 199.243523,22.8435374 201.948187,22.8435374 L201.948187,22.8435374 Z" id="Shape" fill="#B8DFF0"></path>
                        <rect id="Rectangle-path" fill="#B8DFF0" x="215.92228" y="9.29251701" width="3.15544041" height="13.5510204"></rect>
                        <path d="M382.259067,62.3673469 L405.474093,62.3673469 C411.334197,62.3673469 416.067358,67.3360544 416.067358,73.6598639 L416.067358,77.4993197 C416.067358,83.5972789 411.334197,88.7918367 405.474093,88.7918367 L390.147668,88.7918367 L361.297927,103.020408 L360.170984,100.536054 L382.259067,89.4693878 L382.259067,84.7265306 L382.259067,62.3673469 L382.259067,62.3673469 Z M18.7072539,77.2734694 C18.7072539,83.3714286 23.4404145,88.5659864 29.3005181,88.5659864 L44.626943,88.5659864 L73.4766839,102.794558 L74.6036269,100.310204 L52.515544,89.2435374 L52.515544,84.5006803 L52.515544,62.1414966 L29.3005181,62.1414966 C23.4404145,62.1414966 18.7072539,67.1102041 18.7072539,73.4340136 L18.7072539,77.2734694 L18.7072539,77.2734694 Z" id="Shape" fill="#4A90E2"></path>
                        <path d="M369.637306,97.8258503 L350.253886,31.877551 C343.266839,7.93741497 327.940415,0.0326530612 301.34456,0.0326530612 L133.204663,0.0326530612 C106.608808,0.0326530612 83.8445596,7.48571429 78.6606218,31.877551 L64.9119171,97.8258503 L75.0544041,97.6 L88.5777202,32.555102 C93.0854922,10.4217687 113.821244,3.87210884 137.937824,3.87210884 L296.38601,3.87210884 C320.502591,3.87210884 334.251295,10.8734694 340.562176,32.555102 L359.494819,97.6 L369.637306,97.8258503 L369.637306,97.8258503 Z" id="Shape" fill="#3498DB"></path>
                        <g transform="translate(144.248705, 128.993197)" id="Rectangle-path" fill="#CACACA">
                            <rect x="1.12694301" y="1.80680272" width="144.023316" height="5.6462585"></rect>
                            <rect x="1.12694301" y="17.8421769" width="144.023316" height="5.6462585"></rect>
                        </g>
                        <g transform="translate(193.834197, 115.442177)" id="Rectangle-path" fill="#CACACA">
                            <rect x="41.0207254" y="1.58095238" width="5.63471503" height="52.1714286"></rect>
                            <rect x="0.450777202" y="1.58095238" width="5.63471503" height="52.1714286"></rect>
                        </g>
                        <path d="M339.435233,33.4585034 L274.523316,75.2408163 L274.523316,63.2707483 L334.702073,24.4244898 C336.505181,26.9088435 338.082902,30.0707483 339.435233,33.4585034 L339.435233,33.4585034 L339.435233,33.4585034 Z M274.523316,51.0748299 L327.489637,16.9714286 C320.502591,11.7768707 311.036269,9.51836735 299.090674,9.29251701 L274.523316,25.1020408 L274.523316,51.0748299 L274.523316,51.0748299 Z M274.523316,13.1319728 L274.523316,9.29251701 L280.38342,9.29251701 L274.523316,13.1319728 L274.523316,13.1319728 Z M274.523316,75.2408163 L240.03886,97.3741497 L221.556995,97.3741497 L274.523316,63.2707483 L274.523316,75.2408163 L274.523316,75.2408163 Z M274.523316,9.29251701 L261.901554,9.29251701 L125.090674,97.3741497 L143.572539,97.3741497 L274.297927,12.9061224 L274.297927,9.29251701 L274.523316,9.29251701 L274.523316,9.29251701 Z M274.523316,25.1020408 L162.279793,97.3741497 L202.398964,97.3741497 L274.297927,50.8489796 L274.297927,25.1020408 L274.523316,25.1020408 Z" id="Shape" fill="#FFFFFF" opacity="0.5"></path>
                        <g transform="translate(31.554404, 119.959184)" id="Shape">
                            <path d="M357.917098,0 L361.523316,0 C366.256477,0 370.53886,4.06530612 372.11658,9.25986395 L374.821244,18.7455782 C373.919689,19.8748299 371.891192,20.552381 368.284974,20.552381 L364.227979,20.552381 L357.917098,0 L357.917098,0 Z" fill="#E06E46"></path>
                            <path d="M329.292746,0 L350.253886,0 L354.987047,20.552381 L335.378238,20.552381 C328.165803,20.552381 325.686528,18.0680272 324.559585,13.7768707 L322.981865,6.7755102 L322.981865,6.32380952 C323.207254,2.48435374 325.686528,0 329.292746,0 L329.292746,0 Z" fill="#EBEBEB"></path>
                            <path d="M17.8056995,0 L14.1994819,0 C9.46632124,0 5.18393782,4.06530612 3.60621762,9.25986395 L0.901554404,18.7455782 C1.80310881,19.8748299 3.83160622,20.552381 7.43782383,20.552381 L11.2694301,20.552381 L17.8056995,0 L17.8056995,0 Z" fill="#E06E46"></path>
                            <path d="M46.4300518,0 L25.4689119,0 L20.7357513,20.552381 L40.3445596,20.552381 C47.5569948,20.552381 50.0362694,18.0680272 51.1632124,13.7768707 L52.7409326,6.7755102 L52.7409326,6.32380952 C52.515544,2.48435374 50.261658,0 46.4300518,0 L46.4300518,0 Z" fill="#EBEBEB"></path>
                        </g>
                        <g transform="translate(101.424870, 81.564626)" id="Shape" fill="#97BCCC">
                            <g>
                                <path d="M35.8367876,6.7755102 L35.8367876,6.7755102 C35.611399,7.9047619 36.5129534,8.80816327 37.6398964,9.03401361 L103.227979,18.0680272 C104.354922,18.2938776 105.256477,17.3904762 105.481865,16.2612245 L105.481865,16.2612245 C105.707254,15.1319728 104.805699,14.2285714 103.678756,14.0027211 L38.0906736,4.96870748 C36.9637306,4.96870748 36.0621762,5.6462585 35.8367876,6.7755102 L35.8367876,6.7755102 Z"></path>
                                <path d="M69.6450777,2.03265306 C57.0233161,-1.1292517 14.8756477,4.5170068 1.12694301,11.292517 L1.35233161,13.3251701 L69.8704663,4.06530612 L69.6450777,2.03265306 L69.6450777,2.03265306 Z"></path>
                            </g>
                            <g transform="translate(126.217617, 0.000000)">
                                <path d="M35.1606218,6.7755102 L35.1606218,6.7755102 C34.9352332,7.9047619 35.8367876,8.80816327 36.9637306,9.03401361 L102.551813,18.0680272 C103.678756,18.2938776 104.580311,17.3904762 104.805699,16.2612245 L104.805699,16.2612245 C105.031088,15.1319728 104.129534,14.2285714 103.002591,14.0027211 L37.4145078,4.96870748 C36.2875648,4.96870748 35.3860104,5.6462585 35.1606218,6.7755102 L35.1606218,6.7755102 Z"></path>
                                <path d="M68.9689119,2.03265306 C56.3471503,-1.1292517 14.1994819,4.5170068 0.450777202,11.292517 L0.676165803,13.3251701 L69.1943005,4.06530612 L68.9689119,2.03265306 L68.9689119,2.03265306 Z"></path>
                            </g>
                        </g>
                    </g>
                </g>
            </g>
        </g>
    </g>
</svg>