<?xml version="1.0" encoding="UTF-8"?>
<svg width="75px" height="38px" viewBox="0 0 75 38" version="1.1" xmlns="http://www.w3.org/2000/svg" xmlns:xlink="http://www.w3.org/1999/xlink">
    <!-- Generator: Sketch 47.1 (45422) - http://www.bohemiancoding.com/sketch -->
    <title>colp logo</title>
    <desc>Created with Sketch.</desc>
    <defs></defs>
    <g id="Welcome" stroke="none" stroke-width="1" fill="none" fill-rule="evenodd">
        <g id="Desktop-HD" transform="translate(-739.000000, -2687.000000)">
            <g id="footer" transform="translate(0.000000, 2639.000000)">
                <g id="logos" transform="translate(625.000000, 33.000000)">
                    <g id="colp-logo" transform="translate(114.000000, 15.000000)">
                        <g id="cineza" fill="#FF2A2A">
                            <path d="M74.6607791,24.9650335 C74.4406618,25.2710911 74.1440052,25.6297476 73.7708061,26.0410028 C73.4071448,26.4522674 72.9956529,26.8443964 72.5363244,27.2173991 C72.0769712,27.5904018 71.5841357,27.9060195 71.0578209,28.1642521 C70.5314785,28.4224848 70.0051514,28.5516011 69.4788336,28.5516011 C68.8472275,28.5516011 68.3209005,28.3507535 67.8998462,27.9490583 C67.4787735,27.5377999 67.1151306,26.9448202 66.8089116,26.1701192 C66.5792319,26.4379211 66.2969297,26.7105 65.9620019,26.987859 C65.6270555,27.265221 65.2586269,27.5186705 64.8567098,27.7482107 C64.4643489,27.9681876 64.0528571,28.1499059 63.6222312,28.2933685 C63.1915929,28.436831 62.7609608,28.5085623 62.3303319,28.5085623 C61.8709879,28.5085623 61.4212156,28.4177048 60.981018,28.2359834 C60.5503829,28.044702 60.1675967,27.7769032 59.8326627,27.432593 C59.4977256,27.0787196 59.2297747,26.653115 59.0288162,26.1557729 C58.8278515,25.6488738 58.7273706,25.0798066 58.7273737,24.4485682 C58.7273706,23.7312584 58.8278515,22.9948161 59.0288162,22.2392413 C59.2297747,21.4836759 59.5407888,20.6659391 59.9618524,19.7860281 C60.3829128,18.9061325 60.8326851,18.1457808 61.3111693,17.50497 C61.7992159,16.8641807 62.3303288,16.3046766 62.904508,15.8264547 C63.478681,15.3482605 64.0815659,14.9704746 64.7131658,14.6931003 C65.3543219,14.4061874 66.0050558,14.2627249 66.6653676,14.2627125 C67.6812224,14.2019198 68.981348,14.205713 70.1466959,14.8420398 C70.7056166,15.0432082 70.4100461,16.1890246 70.4118697,16.672887 C70.4118574,17.1319765 70.3640115,17.6436618 70.2683257,18.2079366 C70.1726184,18.7626699 70.0673517,19.3365202 69.9525289,19.9294907 C69.8376813,20.5129134 69.6989231,21.1776244 69.5362512,21.9236237 C69.3735577,22.6696353 69.292214,23.3056537 69.2922263,23.8316791 C69.292214,24.2811993 69.3304945,24.6350726 69.4070616,24.8933022 C69.4931756,25.1419748 69.6702143,25.266308 69.9381745,25.2663049 C70.1391238,25.266308 70.3496571,25.2184861 70.5697713,25.1228423 C70.7898577,25.0176385 71.0099596,24.8837421 71.2300738,24.7211471 C71.4597288,24.5585582 71.6846165,24.37684 71.9047307,24.1759893 C72.1343888,23.9655816 72.3497048,23.7503877 72.5506788,23.5304046 C74.6290155,20.9433443 75.1421669,23.9111355 74.6607791,24.9650335 M62.4021039,23.8316791 C62.4021008,24.0707854 62.4164521,24.3051087 62.4451671,24.5346457 C62.4834414,24.7546258 62.5456448,24.9554734 62.6317743,25.1371886 C62.7178976,25.3093468 62.8327329,25.4528093 62.97628,25.5675763 C63.1198209,25.6727863 63.3016423,25.7253882 63.5217504,25.7253852 C63.8758184,25.7253882 64.1964011,25.5723625 64.4834953,25.2663049 C64.7705772,24.9602534 65.0193879,24.5920339 65.2299243,24.161643 C65.4404483,23.7312584 65.6079184,23.2865244 65.7323314,22.8274379 C65.8662976,22.3683638 65.952424,21.985798 65.9907107,21.6797373 L67.0672909,16.9885047 C66.6749269,16.9885139 66.2921439,17.0889377 65.9189387,17.2897761 C65.5457149,17.4810698 65.1916407,17.7440856 64.8567098,18.0788203 C64.5313382,18.4135766 64.2298957,18.7961455 63.9523824,19.226524 C63.6748568,19.656921 63.4021231,20.1877326 63.1341815,20.8189587 C62.8662244,21.4502033 62.6748344,22.0049243 62.5600023,22.4831277 C62.4547326,22.9613435 62.4021008,23.4108576 62.4021039,23.8316791" id="path3006"></path>
                            <path d="M48.2774643,25.7971165 C48.2774643,25.5867088 48.3157417,25.4145537 48.3922996,25.2806512 C48.4688574,25.1371917 48.5693382,25.0032922 48.693742,24.8789559 C48.8181458,24.7546258 48.9616898,24.6302895 49.1243741,24.5059532 C49.2870583,24.3720569 49.4545253,24.209468 49.6267813,24.0181804 L54.2345506,17.7345101 C54.0622886,17.658008 53.9139618,17.5862767 53.7895611,17.5193162 C53.6651511,17.4523773 53.5503159,17.3949923 53.4450554,17.3471611 C53.3493543,17.2897853 53.2488734,17.2467466 53.143613,17.2180448 C53.0383432,17.1893646 52.923508,17.1750153 52.7991073,17.175006 C52.4928759,17.1750153 52.2392794,17.1797861 52.038324,17.1893461 C51.8373562,17.1989062 51.6651033,17.2323941 51.5215624,17.2897699 C51.3875869,17.3471642 51.2631801,17.4332418 51.1483479,17.5480026 C51.0430813,17.662785 50.9234602,17.8253738 50.7894879,18.0357753 C50.4928282,18.4948679 50.2440175,18.834395 50.0430589,19.0543628 C49.8420942,19.2647828 49.6602728,19.3699897 49.4975916,19.3699804 C49.344476,19.3699897 49.2344235,19.3030384 49.1674373,19.1691328 C49.1100197,19.0256795 49.0813109,18.8391781 49.0813109,18.6096257 C49.0813109,18.5139942 49.0860936,18.4135704 49.0956591,18.3083543 C49.1052246,18.1935965 49.1195728,18.0788265 49.1387223,17.9640441 C49.2822663,17.1319703 49.4880138,16.4576962 49.7559647,15.9412186 C50.0239094,15.4247656 50.3205692,15.0278535 50.6459377,14.7504791 C50.9808717,14.4635663 51.3253773,14.2722849 51.6794547,14.1766288 C52.0430975,14.0714373 52.3780345,14.0188323 52.6842659,14.01882 C52.9139302,14.0188323 53.1436006,14.0762173 53.3732772,14.1909751 C53.6029415,14.2961943 53.8278292,14.4157475 54.0479342,14.5496315 C54.2775984,14.6835433 54.5072689,14.8078765 54.7369486,14.9226342 C54.9761814,15.0278535 55.2202063,15.0852385 55.4690231,15.0947893 C55.6604069,15.1043802 55.8326597,15.1091603 55.9857816,15.1091294 C56.1484566,15.1091418 56.2967864,15.1091418 56.4307681,15.1091294 C56.8135449,15.1091418 57.1197732,15.1043494 57.3494529,15.0947893 C57.5791141,15.0756692 57.7513669,15.056546 57.8662114,15.0374043 C57.9906059,15.0182842 58.0767324,15.0039441 58.1245907,14.9943655 C58.1724273,14.9752454 58.2107078,14.9656853 58.2394259,14.9656853 C58.5743506,14.9656977 58.8135927,15.0852509 58.957146,15.3243418 C59.1102493,15.5538943 59.1868072,15.8695119 59.1868195,16.2711948 C59.1868072,16.5963911 59.1580922,16.87375 59.10069,17.1032809 C59.0815282,17.1798046 58.9858455,17.2802284 58.813602,17.4045523 C58.6413399,17.5193347 58.3542518,17.6293217 57.9523378,17.7345163 C57.8374933,17.9449394 57.6461003,18.2414277 57.3781617,18.6239843 C57.1102016,19.0065625 56.7991905,19.4321671 56.4451225,19.9008043 C56.1006106,20.369457 55.7130418,20.9002685 55.2824159,21.4932421 C54.8613462,22.0862279 54.4785601,22.6026932 54.1340606,23.042638 C53.7991204,23.4730319 53.5024607,23.8508177 53.2440876,24.1759954 C52.9952739,24.4916162 52.8278038,24.7068101 52.7416835,24.8215771 L52.6699115,25.1085022 C52.679477,25.1085053 52.7656034,25.1419809 52.9282908,25.208926 C53.0909688,25.2758773 53.2823619,25.3523917 53.5024669,25.4384662 C53.7225626,25.5149837 53.952233,25.5867149 54.1914782,25.65366 C54.4402827,25.7206113 54.6555987,25.7540869 54.8374294,25.7540838 C55.2393465,25.7540869 55.6029893,25.6967019 55.928364,25.5819287 C56.2632918,25.4575986 56.5695201,25.3045698 56.8470488,25.1228485 C57.1341276,24.9411333 57.3972896,24.7498489 57.636541,24.5489982 C57.8853393,24.3385905 58.1197956,24.1425229 58.3399067,23.9608016 C58.5695679,23.7790864 58.7944525,23.6308407 59.0145636,23.5160645 C59.2346562,23.3917374 59.4643267,23.3295693 59.703578,23.3295631 C59.8853871,23.3295693 60.0480713,23.3726081 60.1916277,23.4586795 C60.344728,23.5447632 60.4691348,23.6547501 60.5648422,23.7886434 C60.6700965,23.922549 60.7466512,24.0755747 60.7945126,24.2477267 C60.8519179,24.4103218 60.8806267,24.5729106 60.880639,24.7354995 C60.8806267,25.0128646 60.77536,25.3045698 60.5648422,25.6106213 C60.3542996,25.9071157 60.0719943,26.1988209 59.7179324,26.4857461 C59.3638458,26.7726713 58.9523509,27.0452502 58.4834507,27.3034828 C58.0145289,27.5617155 57.5216965,27.7912556 57.0049473,27.9921032 C56.4977481,28.1833877 55.9762038,28.3364134 55.4403143,28.4511835 C54.913978,28.5659535 54.4163597,28.6233386 53.9474533,28.6233386 C53.9091698,28.6233386 53.808689,28.6042185 53.6460109,28.5659535 C53.4833235,28.5276979 53.2680075,28.4655297 53.0000628,28.3794522 C52.7321088,28.2838115 52.4210978,28.1642583 52.0670266,28.0207957 C50.0454071,27.3444245 50.2231647,27.5654871 48.6793814,27.0882889 C48.545406,26.9161338 48.4449252,26.7200693 48.377939,26.5000924 C48.3109528,26.2801185 48.2774582,26.0457952 48.2774582,25.7971226" id="path3004"></path>
                            <path d="M45.221217,28.6358191 C44.3283559,28.7452787 43.5249321,28.679965 42.8109363,28.4398748 C42.1064289,28.1986221 41.4977615,27.8348094 40.9849249,27.3484367 C40.470925,26.8525687 40.0562487,26.2626205 39.7409086,25.5785858 C39.4338934,24.8839025 39.232037,24.1426 39.1353361,23.3546722 C39.0700902,22.8230681 39.0923438,22.1795526 39.2021001,21.424129 C39.3106869,20.6592317 39.4345136,19.9791752 39.5735711,19.3839659 C39.7221293,18.7876155 39.9264235,18.2133242 40.1864535,17.6610981 C40.4453203,17.0994014 40.7645823,16.5977418 41.1442458,16.1561133 C41.5322343,15.7038577 41.9782051,15.3312004 42.4821582,15.0381475 C42.9944394,14.7344614 43.5782736,14.5424399 44.2336699,14.4620799 C44.7655727,14.3968833 45.2699794,14.4217703 45.7468807,14.5367378 C46.2237696,14.651733 46.6476626,14.8454815 47.0185629,15.1179833 C47.397782,15.3798549 47.7091756,15.7174792 47.9527469,16.1308532 C48.1963027,16.5442579 48.3512883,17.0215023 48.4177098,17.5625955 C48.4899354,18.1511745 48.3761925,18.8348114 48.076478,19.613506 C47.7862457,20.3910566 47.4167155,21.0723219 46.9678905,21.6573143 C46.51905,22.242316 45.9634927,22.7825827 45.3012154,23.2781084 C44.6484264,23.7724807 43.9228348,24.1842356 43.1244375,24.51337 C43.2983658,24.7522204 43.462309,24.9489263 43.616264,25.1034971 C43.7797073,25.2569083 43.9384975,25.3723445 44.0926253,25.4498025 C44.24675,25.5272699 44.4021305,25.5756746 44.5587731,25.5950106 C44.7248978,25.6131747 44.8981998,25.611201 45.0786758,25.5890895 C46.2544594,25.6170604 49.0092704,24.4316469 50.2113282,23.3769471 C50.2113282,23.3769471 50.7803883,26.4664965 50.7741707,26.4398794 C49.2815782,27.7256304 46.7748404,28.6421102 45.221217,28.6358191 M42.504887,22.1755374 C42.8468223,22.1336243 43.2501712,21.9693454 43.5847411,21.782989 C43.9710942,21.567789 44.3207251,21.2809841 44.6264196,20.9615023 C44.9774575,20.5946334 45.2929119,20.1811269 45.5159328,19.7250596 C45.7013212,19.3459477 45.8861418,18.9322808 45.8730433,18.5105187 C45.8617807,18.1476003 45.7374047,17.7626228 45.5015043,17.4864882 C45.3480029,17.3068053 45.1164626,17.1634969 44.8809171,17.1434085 C44.5199711,17.1126313 44.1589573,17.3042087 43.8545557,17.5004922 C43.5889221,17.6717776 43.3739146,17.9229296 43.2013255,18.1876323 C43.0270053,18.4549902 42.9300637,18.7673081 42.8325173,19.0711638 C42.7081259,19.4586361 42.6255603,19.8595049 42.559148,20.2609842 C42.4959109,20.6432633 42.4441709,21.0298968 42.4407551,21.4173475 C42.4385951,21.6709698 42.4792361,21.9666994 42.5048994,22.1755374" id="path3002"></path>
                            <path d="M28.0084648,25.4814988 C28.0084617,24.8502665 28.0467421,24.1233904 28.1233,23.3008644 C28.1998547,22.4687876 28.2955497,21.5601903 28.410388,20.5750723 C28.5252202,19.5804066 28.6544098,18.6861555 28.7979569,17.8923189 C28.9414978,17.098504 29.0802591,16.4194467 29.2142346,15.8551472 C29.3194981,15.4152086 29.5204598,15.046989 29.8171226,14.7504853 C30.1233447,14.4540093 30.5348396,14.3057636 31.0516012,14.3057513 C31.5683566,14.3057636 31.9272167,14.4635725 32.1281845,14.7791778 C32.3291399,15.0948078 32.4296207,15.5156324 32.4296269,16.0416485 C32.4296207,16.1851235 32.4152787,16.381191 32.3865637,16.6298482 C32.3578364,16.8689638 32.3195683,17.1367596 32.2717285,17.4332387 C32.2334419,17.7201762 32.1903786,18.0214476 32.1425389,18.3370529 C32.0946837,18.6431167 32.0468346,18.9969932 31.9989948,19.3986791 C31.9607082,19.7908174 31.9272167,20.0873088 31.8985109,20.2881471 C31.8697836,20.4794378 31.8554446,20.6085541 31.8554477,20.6754961 L32.1425389,20.6754961 C32.1999503,20.5702984 32.2908595,20.4029265 32.4152725,20.1733771 C32.5396701,19.93428 32.6832142,19.5947529 32.8459046,19.1547927 C33.0085796,18.714848 33.1808324,18.327499 33.3626631,17.9927427 C33.5540469,17.6484449 33.7310855,17.323261 33.893776,17.0171972 C34.056451,16.7015888 34.2047808,16.4242298 34.3387625,16.1851111 C34.4727317,15.9460202 34.5732126,15.769082 34.640208,15.6542996 C34.946427,15.1378466 35.2957154,14.7839733 35.6880794,14.5926765 C36.0804248,14.4014074 36.5158396,14.3057636 36.9943331,14.3057513 C37.4728019,14.3057636 37.8507991,14.5066113 38.1283309,14.9082941 C38.4154066,15.3100017 38.5589506,15.8647257 38.558963,16.5724632 C38.5589506,16.6776794 38.5350184,16.8546176 38.487191,17.1032747 C38.4489012,17.3519535 38.3962664,17.6484449 38.3292925,17.9927427 C38.262294,18.3370653 38.1857362,18.7817993 38.0996221,19.3269478 C38.0230519,19.8721149 37.9512799,20.3598877 37.8843061,20.7902662 C37.8173075,21.2206632 37.7598899,21.6462678 37.7120532,22.0670862 C37.6737635,22.487917 37.6546233,22.875266 37.6546356,23.2291332 C37.6546233,23.822119 37.6289939,24.2125426 37.8699517,24.6924546 C40.5806812,22.3737761 41.2130247,22.9157729 41.5484617,22.6837255 L43.1871377,24.2176681 C38.4022093,27.5897419 38.5008573,28.4525805 37.2073472,28.4626 C36.1384349,28.4483216 35.7350799,27.9920785 35.4297063,27.3465154 C35.0756228,26.5813837 34.8985842,25.4671556 34.8985934,24.0038342 C34.8985842,23.4299869 34.9368615,22.8130978 35.0134286,22.1531638 C35.0899772,21.4836759 35.1856722,20.7663629 35.3005167,20.001222 L35.0708462,20.001222 L31.3099866,27.4612855 C31.1090219,27.8629807 30.8937058,28.1307796 30.6640385,28.2646759 C30.4247933,28.4081385 30.1472738,28.4798698 29.8314831,28.4798698 C29.4391254,28.4798698 29.1233285,28.3985754 28.8840895,28.2359834 C28.6448474,28.0638283 28.4582402,27.8390713 28.3242678,27.5617093 C28.1998609,27.2747841 28.1137345,26.9543864 28.0658885,26.60051 C28.0276081,26.2370735 28.0084678,25.8640708 28.0084709,25.4814988" id="path3000"></path>
                            <path d="M30.4078655,24.1710736 C30.1364833,24.5513481 29.7858403,24.9729005 29.3559303,25.4357153 C28.9333764,25.8871969 28.4637357,26.3242304 27.947008,26.7468128 C27.4282747,27.160048 26.8855691,27.5294796 26.3188818,27.8551199 C25.7615472,28.1787742 25.2114206,28.39823 24.668502,28.5134935 C24.1817359,28.6168377 23.7559452,28.6387919 23.3911268,28.5793561 C23.0336676,28.5085932 22.7261249,28.3734324 22.4684892,28.1739109 C22.2108536,27.9743924 21.9984474,27.7114969 21.8312673,27.3852152 C21.671462,27.047597 21.5468175,26.6682877 21.457337,26.2472935 C21.3320661,25.6579035 21.2514383,24.9563677 21.2154628,24.1426833 C21.1554348,22.5714658 21.142978,21.6843477 21.1780957,21.4813352 C21.221665,21.0418808 21.2898854,20.074082 21.3827817,18.5779356 C21.4505023,17.3315936 21.4840247,16.5227139 21.483352,16.1512963 C21.480575,15.907487 21.5667538,15.669167 21.7422836,15.4363394 C21.903064,15.2262186 22.0942102,15.0438651 22.3157192,14.8892727 C22.5445966,14.7233625 22.7851161,14.5891886 23.0372747,14.4867541 C23.2968018,14.3730017 23.5342142,14.2932677 23.7495178,14.247546 C24.1426656,14.1640928 24.4253535,14.182297 24.5975816,14.3021586 C24.7678164,14.4126975 24.8787884,14.5895772 24.9304884,14.8328067 C24.9742304,15.0386409 24.9910564,15.3479459 24.9809664,15.7607339 C24.9688707,16.1641931 24.9453303,16.6287411 24.9103083,17.1543779 C24.8732806,17.6706797 24.8207136,18.297832 24.7525641,19.0358317 C24.6824121,19.7644964 24.6377906,20.4290686 24.6186782,21.0295514 C24.5975724,21.6206962 24.5978809,22.1975101 24.6196038,22.7599871 C24.6393211,23.313126 24.6949305,23.8048708 24.7864043,24.2352123 C25.0580303,25.5559038 26.2074624,24.8090565 26.8435242,24.2523587 C27.2056828,23.9310359 27.5625804,23.5619404 27.9142262,23.1450663 C28.2638694,22.7188449 28.6021668,22.2852561 28.9291244,21.8442844 C29.2560728,21.4033282 29.5471537,21.0237629 29.8023794,20.7055764 L30.4078624,24.1710859" id="path2998"></path>
                            <ellipse id="path3020" cx="25.563088" cy="10.6833902" rx="2.40006549" ry="2.39870375"></ellipse>
                            <path d="M23.2946234,19.2860184 C18.5547176,24.0023138 18.5475496,25.7064747 14.2853042,27.6345847 C13.4910139,27.931073 12.6106095,28.1653963 11.644091,28.3375514 C10.6871195,28.5097065 9.62489374,28.595784 8.45741056,28.5957871 C7.16550508,28.595784 5.99801264,28.3327682 4.95493326,27.8067398 C3.92140702,27.2902745 3.03621989,26.5920879 2.2993657,25.712183 C1.56250226,24.822715 0.993108898,23.7945675 0.591188712,22.6277344 C0.198834014,21.4513443 0.00265512256,20.2175661 0.0026582082,18.9263967 C0.00265512256,18.046498 0.098350111,17.1044281 0.289746259,16.1001777 C0.481136236,15.0863857 0.753869884,14.0582383 1.1079472,13.0157291 C1.47159001,11.9636846 1.91179066,10.9164077 2.42855532,9.87389547 C2.94530764,8.83141716 3.5290554,7.83195911 4.17979243,6.87552442 C4.84009187,5.91912366 5.56259474,5.03443876 6.3473103,4.22146357 C7.13201044,3.39896533 7.96935162,2.68643553 8.85933383,2.08386802 C9.74929753,1.47178362 10.6871195,0.993573981 11.6727998,0.649239113 C12.6584585,0.304953587 13.6824038,0.132798489 14.7446481,0.132773818 C15.4336409,0.132798489 16.1322239,0.257134783 16.8403909,0.505776531 C17.5485239,0.744907561 18.1849035,1.11791027 18.7495295,1.62478775 C19.3141155,2.13171149 19.7734563,2.77251308 20.1275553,3.54718635 C20.4911765,4.32190897 20.673001,5.23528638 20.6730226,6.28732475 C20.673001,6.99509611 20.5581657,7.71240902 20.3285169,8.43926657 C20.1083934,9.15659798 19.8021651,9.85000149 19.409832,10.5194771 C19.0174588,11.1794204 18.5533321,11.8010926 18.017455,12.3844937 C17.4911063,12.9679226 16.9217161,13.4748217 16.309278,13.9052002 C15.696806,14.326034 15.0604265,14.6607811 14.4001394,14.9094383 C13.7398214,15.158117 13.0795189,15.2824533 12.4192318,15.282441 C11.5483837,15.2824533 10.8976497,15.1676833 10.46703,14.9381308 C10.0363856,14.6990368 9.82106955,14.3595097 9.82108189,13.9195465 C9.82106955,13.8430444 9.81626829,13.7521837 9.80673366,13.6469645 C9.80672132,13.541773 9.80672132,13.4317829 9.80673366,13.3170005 C9.80672132,13.1448578 9.81629915,12.9679226 9.83543012,12.786189 C9.8545611,12.5949199 9.89283539,12.4227648 9.95026534,12.2697237 C10.0076706,12.1167103 10.0890112,11.9923771 10.1942902,11.896721 C10.3091131,11.8010926 10.4622257,11.7532707 10.6536311,11.7532584 C10.7684539,11.7532707 10.8689348,11.7724093 10.9550735,11.8106434 C11.0411876,11.8393544 11.1368826,11.8728239 11.2421616,11.9110672 C11.3474159,11.9493383 11.4718197,11.987594 11.615376,12.0258373 C11.7684763,12.0545483 11.9598694,12.0688884 12.1895552,12.0688761 C12.8019964,12.0688884 13.4192357,11.934992 14.0412732,11.6671808 C14.6728514,11.3993974 15.237459,11.0216115 15.7350957,10.5338233 C16.2422671,10.046066 16.653759,9.46743255 16.9695744,8.79792302 C17.2949244,8.11888428 17.4576086,7.37287885 17.4576271,6.55990674 C17.4576086,6.1295375 17.400191,5.72305916 17.2853743,5.34047171 C17.1705206,4.94836121 16.9839133,4.60883413 16.7255495,4.32188738 C16.4671518,4.02541758 16.1322178,3.79109741 15.7207413,3.61891764 C15.3187996,3.43722099 14.8259671,3.34636341 14.2422348,3.34633874 C13.553208,3.34636341 12.8785511,3.49938914 12.218264,3.805419 C11.5675147,4.10193198 10.9407068,4.50841032 10.3378342,5.02485403 C9.73493696,5.54134091 9.16076086,6.1534469 8.61530282,6.86117817 C8.07939484,7.56894644 7.58177658,8.32929812 7.12244187,9.1422363 C6.66309482,9.94564218 6.24681714,10.7872914 5.87360885,11.6671808 C5.50995678,12.5375349 5.19894576,13.4078735 4.94057268,14.2782029 C4.68218727,15.1485539 4.48122563,15.9949831 4.33768469,16.8174937 C4.20370615,17.6304565 4.13671688,18.3812451 4.13672305,19.0698593 C4.13671688,20.0549742 4.25633793,20.9157497 4.49558312,21.6521889 C4.74438762,22.379068 5.09367911,22.986394 5.54345759,23.4741637 C5.99322064,23.9619395 6.54347377,24.3253791 7.19421697,24.5644824 C7.84493857,24.8035887 8.57701618,24.9231388 9.39044056,24.9231388 C10.4048081,24.9231388 11.3474159,24.7988056 12.218264,24.5501361 C13.098653,24.2919035 13.9359942,23.9571595 14.7302876,23.545895 C16.8710437,22.1797161 18.8228073,17.7136322 22.0169334,15.1339979" id="path2996"></path>
                        </g>
                        <g id="hat" transform="translate(30.166052, 2.489362)">
                            <path d="M40.4391528,10.8326551 C27.5618431,10.6484217 14.9221809,10.0493292 0.044409492,10.8146533 C7.2777554,7.99156358 18.3839887,0.180236243 20.1349847,0.160196229 C21.8284585,0.164696667 32.8107346,8.16943539 40.4391528,10.8326406 L40.4391528,10.8326551 Z" id="path4185" fill="#D3BC5F"></path>
                            <path d="M9.86241506,10.5128626 C9.86241506,10.5128626 7.37295738,10.4538982 0.044409492,10.8308868 C7.88914559,7.52761483 19.3871683,-0.241713259 20.1349847,0.176429671 C13.5810445,5.19649376 10.3695973,9.16092241 9.86241506,10.5128626 L9.86241506,10.5128626 Z" id="path4190" fill="#000000" opacity="0.2"></path>
                        </g>
                        <text id="COLPOLATION" font-family="OpenSans-Light, Open Sans" font-size="6.64206642" font-weight="300" letter-spacing="1.40939595" fill="#9A9A9A">
                            <tspan x="12.0991109" y="36.8723404">COLPOLATION</tspan>
                        </text>
                    </g>
                </g>
            </g>
        </g>
    </g>
</svg>