<?xml version="1.0" encoding="UTF-8"?>
<svg width="40px" height="58px" viewBox="0 0 40 58" version="1.1" xmlns="http://www.w3.org/2000/svg" xmlns:xlink="http://www.w3.org/1999/xlink">
    <!-- Generator: Sketch 47.1 (45422) - http://www.bohemiancoding.com/sketch -->
    <title>Shape</title>
    <desc>Created with Sketch.</desc>
    <defs></defs>
    <g id="Welcome" stroke="none" stroke-width="1" fill="none" fill-rule="evenodd">
        <g id="Desktop-HD" transform="translate(-1097.000000, -752.000000)" fill="#E74C3C">
            <g id="features" transform="translate(153.000000, 608.000000)">
                <g id="easy" transform="translate(804.000000, 115.000000)">
                    <path d="M178.933768,29.5543656 C179.889895,30.2187482 177.90386,28.8388674 178.933768,29.5543656 C179.889895,30.2187482 180.177782,31.4861505 179.640586,32.4888125 L171.560579,47.6215698 C171.952024,48.3713058 172.303203,49.1402102 172.63015,49.9202058 C173.833778,52.7917225 174.652231,55.809594 175.234515,58.8637527 C175.513963,60.3301925 175.720958,61.8131485 175.874304,63.2979128 C175.939163,63.9254053 175.982202,64.5557912 176.034041,65.1844893 C176.08588,65.8134285 176.078044,66.4403183 175.984733,67.0653997 C176.064541,67.2500911 176.136151,67.4380375 176.211137,67.6245372 C176.5892,68.5645102 176.915303,69.5282326 177.230195,70.4907495 C177.711212,71.9606855 178.142319,73.4488253 178.496391,74.9546869 C179.149803,77.7343402 179.610688,80.6408182 179.127983,83.4842455 C178.904593,84.8046923 177.854914,85.7807115 176.601135,85.9774584 C175.976897,86.0735413 175.338434,86.0172418 174.730351,85.8496693 C173.618345,85.5436989 172.644375,84.8842591 171.875109,84.0348235 C171.167447,83.2533813 170.663404,82.3342644 170.248572,81.3723503 C169.635546,79.9517216 170.341038,78.254297 171.782884,77.6919046 C171.244362,76.2293225 170.609877,74.8043539 169.925241,73.404943 C169.546696,73.4789643 169.164896,73.523811 168.779479,73.5406888 C168.59527,74.4968162 168.391772,75.449327 168.163319,76.3959306 C167.815516,77.837777 167.410208,79.2700996 166.886514,80.658781 C166.625631,81.3505297 166.332198,82.031549 165.988976,82.6868899 C165.817546,83.0144398 165.632252,83.3346358 165.431406,83.6449463 C165.313502,83.8275882 165.171729,83.9987773 165.059853,84.1849153 C165.062264,84.1810576 165.065037,84.1771998 165.067569,84.1737037 C165.068533,84.1729803 165.069015,84.1721364 165.069015,84.1712925 C164.865156,84.4484502 164.638511,84.7131905 164.392939,84.9538197 C163.363393,85.9628712 162.015339,86.5575725 160.597242,86.7613117 C159.23231,86.9575764 157.841579,86.8142357 156.50112,86.5234553 C154.025388,85.986259 151.656106,84.9468275 149.440654,83.7352425 C148.750351,83.3688736 148.239557,82.7167877 148.048717,81.9589745 C147.779275,80.8884396 148.187718,79.7271263 149.070668,79.0626232 C149.493457,78.7447177 150.005939,78.5518286 150.533491,78.5114424 C150.799919,78.4910685 151.069,78.509393 151.330123,78.5660541 C151.584375,78.6211481 151.814034,78.7297688 152.045139,78.8277806 C152.541829,79.0386326 153.03225,79.2604551 153.536173,79.4547909 C154.169934,79.6991574 154.813099,79.920136 155.465064,80.1110963 C156.206964,80.3283377 156.962728,80.509533 157.729824,80.610197 C158.371904,80.6944655 159.122484,80.7748761 159.742622,80.5402747 C159.776257,80.4897618 160.277046,79.7450891 160.596519,77.8078792 C160.849324,76.2746515 161.091882,74.7367221 161.223891,73.18951 C161.344446,71.7753913 161.417865,70.3571738 161.45596,68.9385946 C161.010869,67.9030209 160.826659,66.8040349 160.839559,65.6808172 C160.852097,64.5909935 160.868975,63.5015314 160.806888,62.4126721 C160.718762,60.8597938 160.589044,59.3042633 160.283074,57.7776662 C159.802418,55.3778839 158.954911,53.0851552 158.856538,52.7875031 L141.574634,46.426742 C141.479756,46.3917808 141.387049,46.3506713 141.297597,46.303534 C140.31567,45.7859883 139.848758,44.5904372 140.216694,43.5440135 C140.597771,42.4599764 141.771501,41.8184994 142.889535,42.0885442 C142.889535,42.0885442 158.822662,46.0497642 160.10863,46.2275839 C162.712633,46.5875633 164.440558,45.9845436 166.25444,43.8250289 C168.685325,40.9308476 175.77364,30.1235092 175.77364,30.1235092 C176.48938,29.0937222 177.90386,28.8388674 178.933768,29.5543656 Z M159.999406,44.8035797 C159.075346,44.8035797 158.152975,44.63661 157.289072,44.3083368 C155.29713,43.5516085 153.678308,41.9529191 152.896142,39.9708624 C152.087816,37.9221384 152.215846,35.5628629 153.243222,33.6148029 C154.239012,31.7270209 156.022876,30.3107322 158.090768,29.7784787 C160.220626,29.2301913 162.533849,29.6398396 164.341582,30.8928958 C166.106156,32.1159336 167.299176,34.0670075 167.570185,36.198071 C167.846619,38.3708468 167.164153,40.5957027 165.71001,42.2344167 C164.269852,43.8576995 162.16965,44.8035797 159.999406,44.8035797 Z" id="Shape"></path>
                </g>
            </g>
        </g>
    </g>
</svg>