<?xml version="1.0" encoding="UTF-8"?>
<svg width="69px" height="46px" viewBox="0 0 69 46" version="1.1" xmlns="http://www.w3.org/2000/svg" xmlns:xlink="http://www.w3.org/1999/xlink">
    <!-- Generator: Sketch 47.1 (45422) - http://www.bohemiancoding.com/sketch -->
    <title>Shape</title>
    <desc>Created with Sketch.</desc>
    <defs></defs>
    <g id="Welcome" stroke="none" stroke-width="1" fill="none" fill-rule="evenodd">
        <g id="Desktop-HD" transform="translate(-686.000000, -758.000000)" fill="#E74C3C">
            <g id="features" transform="translate(153.000000, 608.000000)">
                <g id="fast" transform="translate(402.500000, 115.000000)">
                    <path d="M198.742807,58.6665121 C198.742807,58.6538715 198.742168,58.6412309 198.742009,58.6285903 C198.72348,57.7813495 198.044321,57.1062769 197.188345,57.1062769 L196.780402,57.1062769 L190.480292,44.9044086 C190.214506,44.3891838 189.684373,44.0683683 189.099133,44.0682083 L178.34312,44.0659682 L178.753459,40.8075711 C178.870539,39.5054283 178.468666,38.275929 177.621634,37.3453242 C176.776199,36.4166394 175.595817,35.9050947 174.297716,35.9050947 L140.914784,35.9050947 C140.075419,35.9050947 139.362398,36.5556861 139.282375,37.3944465 L138.947747,40.079056 L157.967712,40.079056 C159.202721,40.079056 160.177694,41.0819843 160.145429,42.319164 C160.113005,43.5563436 159.085641,44.559272 157.850632,44.559272 L151.506438,44.559272 C151.507556,44.5624721 151.508674,44.5656723 151.509792,44.5687124 L132.879561,44.5687124 C132.006174,44.5687124 131.279576,45.2778666 131.256735,46.1527888 C131.233894,47.027711 131.923275,47.7368652 132.796662,47.7368652 L157.461058,47.7368652 C158.605981,47.9135137 159.461319,48.9054015 159.429853,50.1062594 C159.395352,51.425043 158.305535,52.4943746 156.991301,52.5054151 L139.98709,52.5054151 C139.104918,52.5054151 138.371133,53.2217696 138.347972,54.1054922 C138.324812,54.9892148 139.021221,55.7055694 139.903393,55.7055694 L156.707307,55.7055694 C157.869001,55.8676572 158.74143,56.8675454 158.709804,58.0800839 C158.675143,59.4055878 157.574305,60.4801996 156.251127,60.4801996 L136.973202,60.4801996 L136.973202,60.4819597 L135.353412,60.4819597 C134.47124,60.4819597 133.737454,61.1983142 133.714294,62.0820368 C133.691133,62.9657594 134.387383,63.682114 135.269715,63.682114 L136.667645,63.682114 L136.120899,69.4132703 C136.00366,70.7152531 136.405533,71.9447523 137.252725,72.8753572 C138.098,73.804202 139.278541,74.3155866 140.576642,74.3155866 L141.782581,74.3155866 C142.357278,77.6075854 145.200418,80.0949053 148.678153,80.0949053 C152.155888,80.0949053 155.129045,77.6075854 155.875449,74.3157466 L170.924762,74.3157466 C172.141562,74.3157466 173.293513,73.8496442 174.196928,73.0865674 C175.023036,73.8808457 176.118124,74.3157466 177.31384,74.3157466 L177.561417,74.3157466 C178.135955,77.6075854 180.979094,80.0949053 184.456989,80.0949053 C187.934724,80.0949053 190.907881,77.6075854 191.654285,74.3157466 L192.647627,74.3157466 C195.235363,74.3157466 197.53032,72.208285 197.763521,69.6179201 L198.736897,58.8164394 C198.738175,58.8018787 198.737536,58.787478 198.738495,58.7727573 C198.740092,58.7505162 198.743127,58.7287551 198.743766,58.7063541 C198.744085,58.6929134 198.742807,58.6799528 198.742807,58.6665121 L198.742807,58.6665121 Z M148.76185,76.894751 C146.560014,76.894751 144.815476,75.1004245 144.873138,72.8947181 C144.930799,70.6888518 146.769096,68.8943653 148.970932,68.8943653 C151.172768,68.8943653 152.917146,70.6888518 152.859485,72.8947181 C152.801823,75.1004245 150.963686,76.894751 148.76185,76.894751 L148.76185,76.894751 Z M184.540686,76.894751 C182.33885,76.894751 180.594472,75.1004245 180.651973,72.8947181 C180.709635,70.6888518 182.547932,68.8943653 184.749768,68.8943653 C186.951604,68.8943653 188.696142,70.6888518 188.638321,72.8947181 C188.580659,75.1004245 186.742522,76.894751 184.540686,76.894751 L184.540686,76.894751 Z M194.581122,69.4132703 C194.498064,70.3360348 193.651032,71.1155924 192.731484,71.1155924 L191.657,71.1155924 C190.945577,68.0029623 188.183898,65.694211 184.833305,65.694211 C181.482713,65.694211 178.600441,68.0029623 177.726415,71.1155924 L177.397537,71.1155924 C176.991511,71.1155924 176.62925,70.963105 176.377041,70.6859716 C176.123235,70.4072382 176.00376,70.0278599 176.040657,69.6177601 L178.054654,47.2661225 L182.680186,47.2670825 L181.94704,55.4037948 C181.82964,56.7057776 182.231354,57.9352769 183.078386,58.8658817 C183.923661,59.7948865 185.104522,60.3065912 186.402782,60.3065912 L195.401479,60.3065912 L194.581122,69.4132703 L194.581122,69.4132703 Z" id="Shape"></path>
                </g>
            </g>
        </g>
    </g>
</svg>