<?xml version="1.0" encoding="UTF-8"?>
<svg width="90px" height="54px" viewBox="0 0 90 54" version="1.1" xmlns="http://www.w3.org/2000/svg" xmlns:xlink="http://www.w3.org/1999/xlink">
    <!-- Generator: Sketch 47.1 (45422) - http://www.bohemiancoding.com/sketch -->
    <title>logo</title>
    <desc>Created with Sketch.</desc>
    <defs></defs>
    <g id="Welcome" stroke="none" stroke-width="1" fill="none" fill-rule="evenodd">
        <g id="Desktop-HD" transform="translate(-117.000000, -8.000000)">
            <g id="header">
                <g id="logo" transform="translate(117.000000, 8.000000)">
                    <g id="cineza" transform="translate(0.000000, 5.440566)" fill="#FF2A2A">
                        <path d="M89.255485,30.1830895 C88.9923392,30.5531177 88.637692,30.9867385 88.19154,31.4839522 C87.75679,31.981177 87.2648597,32.4552667 86.7157415,32.9062324 C86.1665938,33.3571981 85.5774187,33.7387845 84.9482198,34.0509915 C84.3189878,34.3631986 83.6897742,34.5193021 83.0605717,34.5193021 C82.3054991,34.5193021 81.6762855,34.2764744 81.1729235,33.790819 C80.6695393,33.2936016 80.2348116,32.5766805 79.8687328,31.6400557 C79.5941552,31.9638322 79.2566685,32.293384 78.8562689,32.628715 C78.4558472,32.9640498 78.015398,33.270474 77.5349141,33.5479913 C77.0658544,33.8139467 76.5739241,34.0336467 76.0591193,34.2070951 C75.5442998,34.3805434 75.0294877,34.4672676 74.5146792,34.4672676 C73.9655426,34.4672676 73.4278487,34.3574195 72.9016012,34.1377157 C72.3867854,33.9064537 71.9291721,33.582681 71.5287652,33.1664049 C71.1283545,32.7385669 70.8080245,32.2240047 70.5677825,31.6227109 C70.3275332,31.0098625 70.2074103,30.3218519 70.207414,29.5586755 C70.2074103,28.6914374 70.3275332,27.801068 70.5677825,26.8875671 C70.8080245,25.9740774 71.1798357,24.9854218 71.6832088,23.9215965 C72.1865782,22.8577899 72.7242721,21.9385136 73.2962905,21.163764 C73.8797406,20.3890404 74.5146755,19.7125918 75.2010954,19.1344145 C75.8875079,18.5562707 76.6082449,18.0995221 77.36331,17.7641725 C78.1297995,17.4172907 78.9077391,17.2438423 79.6971287,17.2438274 C80.911563,17.1703281 82.4658375,17.1749141 83.8589879,17.9442426 C84.5271665,18.1874581 84.1738179,19.5727668 84.175998,20.1577635 C84.1759832,20.7128094 84.1187843,21.3314444 84.0043939,22.0136609 C83.8899777,22.6843415 83.7641335,23.3781349 83.626865,24.0950449 C83.489567,24.8004114 83.3236843,25.6040567 83.1292133,26.5059807 C82.9347164,27.4079196 82.8374717,28.1768752 82.8374864,28.8128475 C82.8374717,29.356324 82.8832352,29.784162 82.9747696,30.0963654 C83.0777173,30.3970141 83.2893635,30.5473348 83.6097046,30.5473311 C83.8499355,30.5473348 84.1016239,30.4895174 84.3647661,30.3738827 C84.6278751,30.2466897 84.8910025,30.0848071 85.1541447,29.8882273 C85.4286927,29.691655 85.6975415,29.471955 85.9606837,29.2291236 C86.2352354,28.9747376 86.4926415,28.7145651 86.7329019,28.4486023 C89.2175123,25.3208087 89.8309746,28.9089115 89.255485,30.1830895 M74.6004812,28.8128475 C74.6004775,29.1019306 74.6176343,29.3852308 74.6519625,29.6627445 C74.6977186,29.9287036 74.7720816,30.1715313 74.8750477,30.3912276 C74.9780064,30.5993693 75.1152897,30.7728177 75.2868974,30.9115726 C75.4584978,31.038773 75.6758617,31.1023695 75.9389965,31.1023658 C76.3622778,31.1023695 76.7455281,30.9173592 77.0887436,30.5473311 C77.4319443,30.1773104 77.7293925,29.7321275 77.9810846,29.2117787 C78.2327619,28.6914374 78.4329691,28.1537475 78.5817024,27.5987053 C78.7418564,27.0436781 78.8448188,26.5811504 78.8905897,26.2111185 L80.17762,20.5393499 C79.7085567,20.5393611 79.2509471,20.6607749 78.8047877,20.9035914 C78.3586061,21.1348683 77.9353174,21.4528582 77.5349141,21.8575574 C77.1459388,22.2622826 76.7855703,22.724814 76.4538086,23.2451479 C76.1220322,23.7655042 75.7959845,24.4072631 75.4756656,25.1704246 C75.1553282,25.9336086 74.9265252,26.6042743 74.7892457,27.1824293 C74.6633978,27.7605992 74.6004775,28.3040682 74.6004812,28.8128475" id="path3006"></path>
                        <path d="M57.714754,31.18909 C57.714754,30.934704 57.7605138,30.726566 57.8520372,30.5646759 C57.9435606,30.3912313 58.0636834,30.2293449 58.2124057,30.0790205 C58.361128,29.9287036 58.532732,29.7783792 58.7272178,29.6280548 C58.9217036,29.4661722 59.1219071,29.2695998 59.3278357,29.0383304 L64.8363329,21.4412813 C64.6303969,21.3487892 64.4530752,21.262065 64.3043566,21.1811088 C64.155627,21.1001786 64.0183438,21.0307993 63.8925069,20.9729708 C63.7780981,20.9036026 63.6579753,20.8515681 63.5321384,20.8168672 C63.4062906,20.7821925 63.2690073,20.7648439 63.1202887,20.7648327 C62.7541952,20.7648439 62.4510256,20.7706119 62.2107873,20.7821701 C61.9705343,20.7937284 61.7646094,20.8342158 61.5930091,20.903584 C61.4328441,20.9729745 61.2841181,21.0770435 61.1468385,21.215791 C61.0209943,21.3545646 60.8779897,21.5511369 60.7178284,21.8055154 C60.3631776,22.360565 60.0657294,22.7710582 59.8254874,23.0370024 C59.5852381,23.2914033 59.3678742,23.4186 59.173392,23.4185888 C58.9903453,23.4186 58.8587797,23.337655 58.778699,23.1757611 C58.7100574,23.002324 58.6757366,22.7768411 58.6757366,22.4993088 C58.6757366,22.383689 58.6814543,22.2622752 58.6928896,22.1350673 C58.704325,21.9963235 58.721478,21.8575648 58.7443709,21.7187912 C58.9159749,20.712802 59.1619419,19.8975947 59.4822719,19.2731657 C59.8025946,18.6487666 60.1572454,18.168894 60.546217,17.8335444 C60.946624,17.4866626 61.3584737,17.2554006 61.7817661,17.139751 C62.2164939,17.0125729 62.6169046,16.9489727 62.9829981,16.9489578 C63.2575572,16.9489727 63.5321237,17.018352 63.8066975,17.1570958 C64.0812566,17.2843074 64.3501054,17.4288489 64.6132365,17.5907167 C64.8877956,17.752618 65.1623621,17.9029386 65.4369396,18.0416824 C65.7229378,18.168894 66.0146647,18.2382734 66.3121203,18.2498204 C66.5409158,18.261416 66.7468407,18.2671951 66.9298948,18.2671578 C67.1243696,18.2671727 67.301695,18.2671727 67.4618674,18.2671578 C67.9194695,18.2671727 68.2855594,18.2613787 68.5601369,18.2498204 C68.8346923,18.2267039 69.0406172,18.2035837 69.1779115,18.1804411 C69.3266227,18.1573246 69.4295851,18.1399872 69.4867988,18.1284066 C69.5439866,18.1052901 69.5897501,18.0937318 69.624082,18.0937318 C70.0244779,18.0937467 70.3104871,18.2382883 70.4821022,18.5273527 C70.6651342,18.804885 70.7566576,19.1864714 70.7566724,19.6721118 C70.7566576,20.0652788 70.7223294,20.4006098 70.6537063,20.678116 C70.6307987,20.7706342 70.516412,20.8920481 70.3104982,21.0423576 C70.1045623,21.1811312 69.7613542,21.314107 69.2808739,21.4412888 C69.1435796,21.6956934 68.914773,22.0541521 68.5944577,22.5166686 C68.2741167,22.9792112 67.9023091,23.4937734 67.4790278,24.0603626 C67.0671707,24.6269705 66.6038398,25.2687294 66.089035,25.9856431 C65.5856545,26.7025717 65.1280413,27.3269857 64.716199,27.8588853 C64.3157846,28.3792378 63.9611338,28.8359864 63.6522539,29.229131 C63.354802,29.6107211 63.1545948,29.8708937 63.0516397,30.0096486 L62.9658377,30.3565453 C62.9772731,30.3565491 63.0802355,30.3970216 63.274725,30.4779592 C63.4692034,30.5589042 63.6980101,30.6514113 63.9611412,30.7554766 C64.2242612,30.8479873 64.4988277,30.9347115 64.7848406,31.0156491 C65.0822814,31.0965941 65.3396875,31.1370667 65.5570625,31.1370629 C66.0375464,31.1370667 66.4722742,31.0676873 66.8612532,30.9289249 C67.2616528,30.778608 67.6277427,30.5935939 67.9595228,30.3738902 C68.3027198,30.1541939 68.6173248,29.9229282 68.903345,29.6800968 C69.2007785,29.4257108 69.4810663,29.1886622 69.7442048,28.9689585 C70.0187602,28.7492622 70.2876053,28.570031 70.5507438,28.4312649 C70.8138602,28.2809517 71.0884267,28.2057895 71.3744469,28.205782 C71.5917961,28.2057895 71.7862819,28.257824 71.9579007,28.3618855 C72.140929,28.465962 72.289655,28.5989378 72.4040712,28.7608168 C72.5299006,28.9227106 72.6214203,29.1077209 72.6786377,29.3158552 C72.7472645,29.512435 72.7815853,29.7090073 72.7816001,29.9055796 C72.7815853,30.2409181 72.6557412,30.5935939 72.4040712,30.9636146 C72.1523717,31.3220807 71.8148813,31.6747566 71.3916073,32.0216533 C70.9683038,32.36855 70.4763698,32.6981018 69.9158089,33.0103089 C69.3552221,33.3225159 68.7660507,33.6000333 68.1482872,33.842861 C67.5419406,34.0741267 66.9184447,34.259137 66.2777995,34.3978957 C65.6485748,34.5366544 65.053682,34.6060337 64.4931137,34.6060337 C64.4473465,34.6060337 64.3272237,34.5829172 64.1327452,34.5366544 C63.9382557,34.4904027 63.6808497,34.4152405 63.360527,34.3111715 C63.0401933,34.1955405 62.6683858,34.050999 62.2451007,33.8775506 C59.8282946,33.059808 60.0408003,33.3270758 58.1952379,32.7501363 C58.0350729,32.5419983 57.9149501,32.3049535 57.8348694,32.0389981 C57.7547888,31.7730464 57.7147466,31.4897462 57.7147466,31.1890974" id="path3004"></path>
                        <path d="M54.0610707,34.6211228 C52.9936729,34.7534611 52.0331957,34.6744959 51.1796278,34.3842234 C50.3374032,34.0925453 49.6097533,33.6526904 48.9966673,33.0646588 C48.3821905,32.4651471 47.8864533,31.7518911 47.5094703,30.9248832 C47.1424398,30.085001 46.9011244,29.1887555 46.7855204,28.2361392 C46.7075202,27.5934221 46.734124,26.8154026 46.8653354,25.9020844 C46.9951488,24.9773124 47.1431813,24.1551142 47.3094218,23.4354974 C47.4870202,22.7145011 47.7312497,22.0201745 48.0421105,21.3525251 C48.3515807,20.6734256 48.7332521,20.0669119 49.1871323,19.5329766 C49.6509649,18.9861929 50.1841141,18.5356448 50.7865801,18.1813396 C51.3990021,17.8141787 52.0969643,17.5820219 52.8804777,17.4848655 C53.516357,17.4060419 54.1193652,17.4361306 54.6894912,17.575128 C55.2596025,17.7141588 55.7663583,17.9484036 56.2097622,18.2778622 C56.6631111,18.5944689 57.0353761,19.0026616 57.3265607,19.5024367 C57.6177269,20.0022491 57.8030091,20.5792445 57.8824147,21.2334341 C57.9687589,21.9450347 57.8327816,22.7715616 57.4744788,23.7130148 C57.1275118,24.6530847 56.6857457,25.4767444 56.1491843,26.1840088 C55.6126044,26.8912844 54.9484466,27.5444748 54.1567072,28.1435725 C53.3763109,28.7412759 52.5088804,29.2390935 51.5544123,29.6370218 C51.7623401,29.9257954 51.958331,30.1636157 52.1423811,30.350494 C52.3377744,30.5359704 52.5276049,30.6755345 52.7118616,30.7691824 C52.8961146,30.8628415 53.081869,30.9213636 53.2691321,30.9447411 C53.467731,30.9667017 53.67491,30.9643155 53.8906656,30.9375824 C55.2962916,30.9713996 58.5896137,29.5382173 60.02665,28.2630699 C60.02665,28.2630699 60.7069501,31.9983802 60.6995171,31.9661997 C58.9151523,33.5206915 55.9183968,34.6287289 54.0610707,34.6211228 M50.8137519,26.8105481 C51.2225289,26.7598745 51.7047244,26.561259 52.1046961,26.3359514 C52.5665736,26.0757714 52.9845505,25.7290201 53.3500022,25.3427619 C53.7696611,24.8992121 54.1467805,24.3992767 54.4133976,23.8478847 C54.6350258,23.3895329 54.8559752,22.8894036 54.8403162,22.379487 C54.8268519,21.9407134 54.6781629,21.47527 54.3961487,21.1414192 C54.2126408,20.92418 53.9358389,20.7509181 53.6542489,20.7266308 C53.2227452,20.6894207 52.7911602,20.9210407 52.4272542,21.1583502 C52.1096945,21.3654368 51.8526573,21.6690833 51.6463304,21.9891126 C51.437934,22.3123522 51.3220422,22.6899491 51.2054275,23.0573151 C51.05672,23.5257748 50.9580144,24.010431 50.8786199,24.4958254 C50.8030212,24.9580063 50.741167,25.4254519 50.7370834,25.8938855 C50.7345013,26.2005185 50.7830868,26.5580599 50.8137667,26.8105481" id="path3002"></path>
                        <path d="M33.4835658,30.8075036 C33.4835621,30.0443346 33.5293256,29.1655308 33.620849,28.1710849 C33.7123687,27.1650919 33.8267702,26.0665844 33.9640571,24.8755624 C34.1013367,23.6729971 34.2557803,22.5918345 34.427388,21.6320745 C34.5989884,20.6723406 34.7648747,19.8513505 34.9250398,19.1691042 C35.0508803,18.637212 35.2911259,18.1920292 35.6457804,17.8335518 C36.0118629,17.4751081 36.503797,17.2958768 37.1215752,17.2958619 C37.7393461,17.2958768 38.1683562,17.48667 38.4086092,17.8682415 C38.6488475,18.2498428 38.7689703,18.7586259 38.7689777,19.394587 C38.7689703,19.5680503 38.7518247,19.8050989 38.7174965,20.105729 C38.6831536,20.3948233 38.6374048,20.7185923 38.5802133,21.0770398 C38.5344423,21.4239514 38.4829611,21.7881929 38.4257696,22.1697644 C38.3685597,22.5398 38.3113571,22.9676417 38.2541656,23.4532859 C38.2083947,23.9273868 38.1683562,24.2858492 38.1340391,24.5286657 C38.0996961,24.7599389 38.0825542,24.9160424 38.0825578,24.9969763 L38.4257696,24.9969763 C38.4944039,24.8697908 38.603084,24.6674356 38.7518173,24.3899071 C38.9005322,24.1008352 39.0721363,23.690342 39.2666294,23.1584237 C39.4611042,22.6265242 39.667029,22.1582136 39.884404,21.7534884 C40.1131996,21.3372272 40.3248458,20.9440751 40.519339,20.5740395 C40.7138137,20.1924644 40.8911391,19.8571334 41.0513115,19.5680354 C41.2114691,19.2789709 41.331592,19.0650501 41.4116837,18.9262765 C41.7777625,18.3018773 42.1953299,17.8740393 42.6643932,17.6427586 C43.1334344,17.4115116 43.6539642,17.2958768 44.2259937,17.2958619 C44.7979936,17.2958768 45.2498818,17.5387045 45.5816656,18.024345 C45.924859,18.5100153 46.096463,19.1806848 46.0964778,20.0363497 C46.096463,20.1635575 46.0678525,20.3774784 46.0106757,20.6781086 C45.9649011,20.9787648 45.9019772,21.3372272 45.8219113,21.7534884 C45.7418159,22.1697793 45.6502925,22.7074692 45.5473448,23.3665618 C45.4558067,24.0256767 45.3700047,24.6154011 45.2899388,25.135735 C45.2098433,25.6560912 45.1412017,26.1706534 45.0840139,26.6794291 C45.0382393,27.1882196 45.0153575,27.6565301 45.0153723,28.0843607 C45.0153575,28.8012893 44.9847182,29.2733171 45.2727784,29.8535377 C48.5134019,27.0502215 49.2693561,27.7055036 49.6703644,27.424955 L51.6293691,29.2795138 C45.9090819,33.3564002 46.0270135,34.3995847 44.4806479,34.4116985 C43.2027843,34.3944357 42.7205814,33.8428311 42.3555133,33.0623359 C41.9322135,32.1372805 41.7205673,30.7901625 41.7205783,29.0209856 C41.7205673,28.3271959 41.7663271,27.581368 41.8578616,26.7834981 C41.9493739,25.9740774 42.0637754,25.1068356 42.2010697,24.181769 L41.9265032,24.181769 L37.4304699,33.2010946 C37.1902205,33.68675 36.9328144,34.0105227 36.6582517,34.1724054 C36.3722388,34.3458537 36.0404697,34.4325779 35.6629482,34.4325779 C35.1938922,34.4325779 34.8163633,34.3342918 34.5303578,34.1377157 C34.2443486,33.9295777 34.0212634,33.6578432 33.8611021,33.3225085 C33.7123761,32.9756117 33.6094137,32.5882462 33.5522148,32.1604045 C33.5064512,31.7210045 33.4835695,31.2700388 33.4835732,30.8075036" id="path3000"></path>
                        <path d="M36.3520019,29.2231804 C36.0275699,29.6829379 35.6083831,30.1926009 35.0944342,30.7521508 C34.5892794,31.2979985 34.0278332,31.8263785 33.4100955,32.3372868 C32.7899601,32.8368941 32.1411662,33.2835422 31.4637028,33.6772461 C30.7974202,34.0685489 30.1397547,34.3338742 29.4907063,34.4732294 C28.9087871,34.5981741 28.3997628,34.6247171 27.9636296,34.5528583 C27.5362942,34.4673049 27.1686329,34.3038936 26.8606346,34.0626691 C26.5526363,33.8214484 26.2987088,33.5036039 26.0988484,33.1091245 C25.9078043,32.7009392 25.7587942,32.2423488 25.6518221,31.7333606 C25.5020632,31.0207795 25.4056743,30.1726125 25.3626663,29.1888561 C25.2909039,27.2892313 25.2760122,26.2166926 25.3179947,25.9712475 C25.3700808,25.4399407 25.451637,24.2698578 25.5626927,22.4609951 C25.6436513,20.9541495 25.6837267,19.976202 25.6829225,19.5271527 C25.6796026,19.2323837 25.7826277,18.9442514 25.9924701,18.6627595 C26.1846799,18.4087203 26.4131914,18.1882522 26.678001,18.0013478 C26.9516194,17.80076 27.2391558,17.6385417 27.5406064,17.5146969 C27.8508659,17.3771686 28.1346877,17.2807691 28.392079,17.2254908 C28.8620793,17.1245947 29.2000271,17.1466039 29.4059224,17.2915183 C29.6094348,17.4251615 29.7420996,17.6390115 29.8039059,17.9330796 C29.8561986,18.1819362 29.8763138,18.5558904 29.8642513,19.0549571 C29.8497911,19.5427452 29.8216491,20.1043905 29.779781,20.739893 C29.7355151,21.3641095 29.6726723,22.1223457 29.591201,23.0145981 C29.5073356,23.8955643 29.4539915,24.6990418 29.4311429,25.4250343 C29.4059114,26.139737 29.4062803,26.8371134 29.4322496,27.5171563 C29.4558211,28.1859093 29.5223011,28.780436 29.6316563,29.3007251 C29.9563797,30.8974604 31.3305031,29.994511 32.0909023,29.3214554 C32.5238558,28.9329713 32.9505198,28.4867296 33.3709054,27.9827227 C33.788897,27.4674148 34.1933248,26.9431996 34.5841962,26.4100584 C34.9750565,25.8769359 35.3230379,25.418036 35.6281552,25.0333438 L36.3519982,29.2231953" id="path2998"></path>
                        <ellipse id="path3020" cx="30.5601662" cy="12.9163745" rx="2.86923083" ry="2.90006781"></ellipse>
                        <path d="M27.8482616,23.3170775 C22.181798,29.0191474 22.1732288,31.0795028 17.0777987,33.4106159 C16.1282403,33.7690746 15.0757343,34.0523748 13.9202806,34.2605128 C12.7762401,34.4686509 11.5063701,34.5727199 10.1106671,34.5727236 C8.56621963,34.5727199 7.17050551,34.25473 5.92352473,33.6187539 C4.68796455,32.9943398 3.62974084,32.150222 2.74884623,31.0864042 C1.86794055,30.0110244 1.18724205,28.7679791 0.706754416,27.3572609 C0.237702132,25.9349881 0.00317414651,24.4433323 0.00317783534,22.8822896 C0.00317414651,21.8184793 0.117575613,20.679503 0.346385923,19.4653496 C0.575188856,18.2396603 0.90123654,16.9966151 1.32452897,15.7362063 C1.75925676,14.4642691 2.28550793,13.1980961 2.90328987,11.9376836 C3.52105705,10.6773121 4.21891595,9.46895278 4.9968592,8.31260929 C5.78623412,7.15630682 6.64997201,6.08670988 7.58808396,5.10381102 C8.52617746,4.10939865 9.52720228,3.24793973 10.5911584,2.51942682 C11.6550924,1.77940785 12.7762401,1.20124543 13.9546014,0.784939555 C15.1329368,0.368693334 16.3570432,0.16055531 17.6269353,0.160525482 C18.4506126,0.16055531 19.2857547,0.310879702 20.1323543,0.611491202 C20.9789134,0.900604104 21.7396925,1.35156982 22.4146918,1.96439209 C23.0896431,2.57727028 23.6387761,3.35200875 24.0620943,4.28860003 C24.4967963,5.22525097 24.7141639,6.32953757 24.7141897,7.60146731 C24.7141639,8.4571732 24.5768806,9.32441497 24.30234,10.2031963 C24.0391867,11.0704605 23.6730969,11.9087954 23.2040704,12.7182012 C22.734996,13.5160823 22.1801417,14.267693 21.5395112,14.9730335 C20.9102718,15.6784076 20.2295769,16.2912559 19.4974194,16.8115898 C18.7652212,17.3203841 18.004442,17.7250981 17.2150819,18.0257283 C16.4256848,18.3263845 15.6363062,18.4767089 14.8469461,18.476694 C13.8058643,18.4767089 13.0279248,18.3379502 12.5131274,18.060418 C11.9983005,17.7713498 11.7408944,17.3608566 11.7409092,16.8289346 C11.7408944,16.7364425 11.7351546,16.6265907 11.7237562,16.499379 C11.7237414,16.372201 11.7237414,16.2392214 11.7237562,16.1004478 C11.7237414,15.8923247 11.7351915,15.6784076 11.7580622,15.4586889 C11.7809329,15.2274418 11.8266891,15.0193038 11.8953455,14.8342748 C11.9639723,14.6492794 12.0612134,14.4989588 12.1870723,14.3833091 C12.3243408,14.267693 12.5073839,14.2098757 12.7362053,14.2098608 C12.8734738,14.2098757 12.9935966,14.2330146 13.0965738,14.2792401 C13.1995214,14.3139522 13.3139229,14.3544172 13.4397819,14.400654 C13.5656113,14.4469243 13.7143336,14.4931759 13.8859524,14.5394126 C14.0689807,14.5741247 14.2977873,14.5914621 14.5723722,14.5914472 C15.3045335,14.5914621 16.0424309,14.4295794 16.7860644,14.1057918 C17.5411038,13.7820377 18.2160809,13.3252891 18.8109958,12.735546 C19.4173092,12.1458403 19.9092396,11.446264 20.2867906,10.6368172 C20.6757401,9.81584948 20.8702259,8.91391804 20.870248,7.93102291 C20.8702259,7.41070022 20.8015843,6.91926198 20.6643232,6.45670818 C20.5270178,5.98264087 20.3039325,5.57214767 19.9950637,5.22522487 C19.6861543,4.86678855 19.2857473,4.58349206 18.7938354,4.3753242 C18.3133219,4.1556503 17.7241505,4.04580216 17.0263101,4.04577233 C16.2025922,4.04580216 15.3960532,4.2308125 14.606693,4.60080706 C13.828735,4.95929558 13.0793986,5.45073383 12.3586764,6.0751218 C11.6379246,6.69956197 10.9515085,7.43960704 10.2994242,8.29526446 C9.65875677,9.15096661 9.06386398,10.0702429 8.51473842,11.053097 C7.9655981,12.0244264 7.46794637,13.0419926 7.02178323,14.1057918 C6.58704438,15.1580625 6.21523685,16.2103146 5.90635695,17.2625555 C5.59746229,18.3148225 5.35721663,19.3381678 5.18561627,20.3325951 C5.02544758,21.3154791 4.94536323,22.2231934 4.94537061,23.055738 C4.94536323,24.2467562 5.08836783,25.2874464 5.37438072,26.1778121 C5.67182158,27.0566196 6.08939265,27.7908855 6.62709393,28.3806062 C7.16477677,28.9703343 7.8225935,29.4097381 8.60054413,29.6988174 C9.37846893,29.9879005 10.2536532,30.1324383 11.226086,30.1324383 C12.4387423,30.1324383 13.5656113,29.9821176 14.606693,29.6814726 C15.6591806,29.3692655 16.6602055,28.9645552 17.6097675,28.4673304 C20.1689991,26.8156002 22.502294,21.4160396 26.3208086,18.2972242" id="path2996"></path>
                    </g>
                    <text id="LENT-A-CAL" font-family="OpenSans-Light, Open Sans" font-size="12.0350358" font-weight="300" letter-spacing="2" fill="#3498DB">
                        <tspan x="10.0437948" y="52.8974812">LENT A CA</tspan>
                        <tspan x="84.0172891" y="52.8974812">L</tspan>
                    </text>
                    <path d="M39.1084121,18.9487416 L46.6573,18.9487418 C46.6590818,18.9328062 46.6609178,18.9167856 46.6628091,18.9006815 C46.7352214,18.2841042 46.8757818,17.6719089 47.1040934,17.0894278 C47.8569448,15.168712 49.4038472,13.9599776 51.7809957,13.9599776 C54.1517037,13.9599776 55.7144339,15.1604615 56.5056575,17.071889 C56.773284,17.7184175 56.9271326,18.3625553 57.0025065,18.9487419 L68.7538356,18.9487419 C68.7554763,18.933696 68.7571636,18.9185741 68.758899,18.9033777 C68.8290751,18.2888517 68.9653409,17.6787149 69.1867492,17.0980694 C69.9198845,15.175414 71.4335827,13.9599776 73.766452,13.9599776 C76.0835694,13.9599776 77.6358564,15.1552831 78.4617662,17.055796 C78.7494394,17.717765 78.9192913,18.37051 79.0083528,18.9487418 L85.5498274,18.948741 C85.5245424,18.7526746 85.4952124,18.5479541 85.4615152,18.3358218 C85.260651,17.0713314 84.9487211,15.8084762 84.5055821,14.6399666 C84.2441542,13.9506096 83.9440615,13.3151343 83.6041273,12.7444664 C83.0584472,11.8284007 82.3097893,11.4621995 81.1796104,11.426744 C80.7251642,11.4124873 80.2905459,11.4460196 79.5342654,11.5376402 C77.6664356,11.7639208 77.234772,11.7666164 76.5635047,11.2219185 C76.0607182,10.8139338 75.9395911,10.2562976 76.0078401,9.56393931 C76.0282083,9.35731236 76.0655992,9.13695299 76.1235012,8.85938112 C76.156658,8.70043356 76.2986809,8.06626107 76.2809747,8.14648235 C76.4873611,7.21141138 76.561944,6.6126381 76.507633,6.02535482 C76.3865182,4.71569898 75.5585004,3.7674995 73.461224,3.0952729 C67.2142351,1.09296548 57.6431581,1.12046633 51.6013991,3.09358515 C49.7166302,3.70911334 48.8138009,4.74947388 48.5760786,6.15765068 C48.4226819,7.06631415 48.5565503,8.08283465 48.8804103,9.0856838 C49.0186724,9.51381963 49.1543327,9.83207486 49.2359375,9.99289208 L50.0947257,11.6852911 L48.2132418,11.436795 C48.1208155,11.4245878 47.9429394,11.4026215 47.6923139,11.3741387 C47.2720407,11.3263762 46.8042381,11.2785504 46.3016783,11.233897 C44.9582002,11.1145264 43.620491,11.0397228 42.3775815,11.0310646 C40.636865,11.0189387 39.2259978,11.139889 38.2987953,11.4064707 C36.3721218,11.960412 36.2880915,12.1030766 36.4334659,13.4840495 C36.4611537,13.7470668 36.4753932,13.9022364 36.4860706,14.0826959 C36.5065161,14.4282477 36.8501864,15.2380972 37.4249847,16.2629919 C37.5685075,16.5189004 37.7243802,16.7854434 37.8907018,17.0602639 C38.2207747,17.6056582 38.5756915,18.1573365 38.9306934,18.6859638 C38.994481,18.7809488 39.0539401,18.8687978 39.1084121,18.9487416 Z" id="Rectangle-25" stroke="#3498DB" stroke-width="2"></path>
                </g>
            </g>
        </g>
    </g>
</svg>