<?xml version="1.0" encoding="UTF-8"?>
<svg width="51px" height="66px" viewBox="0 0 51 66" version="1.1" xmlns="http://www.w3.org/2000/svg" xmlns:xlink="http://www.w3.org/1999/xlink">
    <!-- Generator: Sketch 47.1 (45422) - http://www.bohemiancoding.com/sketch -->
    <title>Shape</title>
    <desc>Created with Sketch.</desc>
    <defs></defs>
    <g id="Welcome" stroke="none" stroke-width="1" fill="none" fill-rule="evenodd">
        <g id="Desktop-HD" transform="translate(-293.000000, -748.000000)" fill="#E74C3C">
            <g id="features" transform="translate(153.000000, 608.000000)">
                <g id="secure" transform="translate(0.500000, 115.000000)">
                    <path d="M183.403114,51.8656285 L183.403114,43.6864666 C183.403114,33.5218131 175.164654,25.2833522 165,25.2833522 C154.835346,25.2833522 146.596886,33.5218131 146.596886,43.6864666 L146.596886,51.8656285 C143.208668,51.8656285 140.462514,54.6117822 140.462514,58 L140.462514,64.1343715 L140.462514,66.1791619 L140.462514,70.2687429 L140.462514,72.3135334 C140.462514,82.4781869 148.700975,90.7166478 158.865629,90.7166478 L171.134371,90.7166478 C181.299025,90.7166478 189.537486,82.4781869 189.537486,72.3135334 L189.537486,70.2687429 L189.537486,66.1791619 L189.537486,64.1343715 L189.537486,58 C189.537486,54.6097374 186.789287,51.8656285 183.403114,51.8656285 L183.403114,51.8656285 Z M150.686467,43.6864666 C150.686467,35.7813066 157.09484,29.3729332 165,29.3729332 C172.90516,29.3729332 179.313533,35.7813066 179.313533,43.6864666 L179.313533,51.8656285 L175.223952,51.8656285 L175.223952,43.6905562 C175.223952,38.0428449 170.647711,33.4666038 165,33.4666038 C159.352289,33.4666038 154.776048,38.0428449 154.776048,43.6905562 L154.776048,51.8656285 L150.686467,51.8656285 L150.686467,43.6864666 L150.686467,43.6864666 Z M173.179162,43.6864666 L173.179162,43.692601 L173.179162,51.8656285 L156.820838,51.8656285 L156.820838,43.6905562 L156.820838,43.6864666 C156.820838,39.1695244 160.483058,35.5073047 165,35.5073047 C169.516942,35.5073047 173.179162,39.1695244 173.179162,43.6864666 Z M165,64.1343715 C167.257449,64.1343715 169.089581,65.9644589 169.089581,68.2239524 C169.089581,69.4692298 168.41889,71.839142 167.727751,73.7080805 C167.169523,75.2171359 166.599026,76.3990248 165,76.3990248 C163.529796,76.3990248 162.830477,75.2048671 162.274294,73.6876326 C161.591334,71.8227837 160.910419,69.4651403 160.910419,68.2239524 C160.910419,65.9644589 162.742551,64.1343715 165,64.1343715 Z" id="Shape"></path>
                </g>
            </g>
        </g>
    </g>
</svg>